<svg id="Layer_1" data-name="Layer 1" xmlns="http://www.w3.org/2000/svg" viewBox="0 0 612 612"><defs><style>.cls-1{fill:#979797;}</style></defs><title>facebook</title><path class="cls-1" d="M537.23,90A74.81,74.81,0,0,1,612,164.77V627.23A74.81,74.81,0,0,1,537.23,702H410V471.41h79.61l15.15-98.76H410V308.56c0-27,13.24-53.35,55.68-53.35h43.08V171.13s-39.1-6.67-76.48-6.67c-78,0-129,47.3-129,132.92v75.27H216.45v98.76H303.2V702H74.77A74.81,74.81,0,0,1,0,627.23V164.77A74.81,74.81,0,0,1,74.77,90H537.23Z" transform="translate(0 -90)"/></svg>