<svg id="Layer_1" data-name="Layer 1" xmlns="http://www.w3.org/2000/svg" viewBox="0 0 612 612"><defs><style>.cls-1{fill:#979797;}</style></defs><title>instagram</title><path class="cls-1" d="M537.23,90A74.81,74.81,0,0,1,612,164.77V627.23A74.81,74.81,0,0,1,537.23,702H74.77A74.81,74.81,0,0,1,0,627.23V164.77A74.81,74.81,0,0,1,74.77,90H537.23ZM306,186.82c-56.81,0-63.93.24-86.24,1.26s-37.47,4.55-50.78,9.72A107,107,0,0,0,107.8,259c-5.17,13.31-8.71,28.51-9.72,50.78S96.82,339.19,96.82,396s.24,63.93,1.26,86.24,4.55,37.47,9.72,50.78A107,107,0,0,0,169,594.2c13.31,5.17,28.51,8.71,50.78,9.72s29.43,1.26,86.24,1.26,63.93-.24,86.24-1.26,37.47-4.55,50.78-9.72A107,107,0,0,0,504.2,533c5.17-13.31,8.71-28.51,9.72-50.78s1.26-29.43,1.26-86.24-.24-63.93-1.26-86.24-4.55-37.47-9.72-50.78A107,107,0,0,0,443,197.8c-13.31-5.17-28.51-8.71-50.78-9.72S362.81,186.82,306,186.82Zm0,37.69c55.85,0,62.47.21,84.53,1.22,20.39.93,31.47,4.34,38.84,7.2a69.27,69.27,0,0,1,39.7,39.7c2.86,7.37,6.27,18.45,7.2,38.84,1,22.06,1.22,28.67,1.22,84.53s-.21,62.47-1.22,84.53c-.93,20.39-4.34,31.47-7.2,38.84a69.27,69.27,0,0,1-39.7,39.7c-7.37,2.86-18.45,6.27-38.84,7.2-22.05,1-28.67,1.22-84.53,1.22s-62.47-.21-84.53-1.22c-20.39-.93-31.47-4.34-38.84-7.2a69.27,69.27,0,0,1-39.7-39.7c-2.86-7.37-6.27-18.45-7.2-38.84-1-22.06-1.22-28.67-1.22-84.53s.21-62.47,1.22-84.53c.93-20.39,4.34-31.47,7.2-38.84a69.27,69.27,0,0,1,39.7-39.7c7.37-2.86,18.45-6.27,38.84-7.2,22.06-1,28.67-1.22,84.53-1.22Zm0,64.07A107.42,107.42,0,1,0,413.42,396,107.42,107.42,0,0,0,306,288.58Zm0,177.14A69.73,69.73,0,1,1,375.73,396,69.73,69.73,0,0,1,306,465.73ZM442.76,284.34a25.1,25.1,0,1,1-25.1-25.1,25.1,25.1,0,0,1,25.1,25.1Z" transform="translate(0 -90)"/></svg>