<svg id="Layer_1" data-name="Layer 1" xmlns="http://www.w3.org/2000/svg" viewBox="0 0 512 512"><defs><style>.cls-1{fill:#979797;}</style></defs><title>linkedin</title><path class="cls-1" d="M332.05,176.92c24.5,0,45.36,8.77,62.61,25.71,14.52,14.82,21.47,36.29,21.47,64.71V430.65h-61.4V322.38c0-29.33-1.51-49-3.93-58.68-2.72-9.67-7.26-17.23-13.91-22.07-6.65-5.14-14.82-7.56-24.49-7.56-12.4,0-23.3,3.93-32.37,12.4s-15.12,20-18.74,34.79c-1.82,7.85-2.73,24.48-2.73,50.2v99.19h-62V183h62v25.71c14.21-11.79,26.92-20,38.42-24.8a94.19,94.19,0,0,1,35.07-7ZM25.7,512H486.59A25.55,25.55,0,0,0,512,486.6V25.71A25.63,25.63,0,0,0,486.59,0H25.7A25.68,25.68,0,0,0,0,25.71V486.6A25.61,25.61,0,0,0,25.7,512ZM135.48,81.35a38.41,38.41,0,0,1,28.13,11.79c7.86,7.86,11.49,17.54,11.49,28.73A38.1,38.1,0,0,1,163.61,150c-7.56,7.86-16.94,11.5-27.83,11.5a38.41,38.41,0,0,1-28.13-11.8q-11.79-11.79-11.79-29c0-10.89,3.93-20,11.49-27.83a39.31,39.31,0,0,1,28.13-11.49ZM104.33,183h62V430.65h-62Z"/></svg>